# xmcd
#
# Track frame offsets: 
#        150
#        16502
#        42050
#        60312
#        74280
#        105112
#        122827
#        138475
#        155707
#        175102
#        195835
#        208727
#        222662
#        239547
#        250075
#        278077
#
# Disc length: 4034 seconds
#
# Revision: 2
# Processed by: cddbd v1.5.2PL0 Copyright (c) Steve Scherf et al.
# Submitted via: ExactAudioCopy v0.99pb4
#
DISCID=d90fc010
DTITLE=Various Artist - Sunday Nights- The Songs Of Junior Kimbrough
DYEAR=2005
DGENRE=Blues
TTITLE0=Iggy And The Stooges - You Beter Run Version #1
TTITLE1=Spiritualized - Sad Days Lonely Nights
TTITLE2=Blues Explosion - Meet Me In The City
TTITLE3=Heartless Bastards - Done Got Old
TTITLE4=The Black Keys - My Mind Is Ramblin'
TTITLE5=Pete Yorn - I Feel Good Again
TTITLE6=Entrance and Cat Power - Do The Romp
TTITLE7=The Fiery Furnaces - I'm Leaving
TTITLE8=Mark Lanegan - All Night Long
TTITLE9=Thee Shames - Release Me
TTITLE10=Jim White - Done Got Old
TTITLE11=Outrageous Cherry - Lord Have Mercy On Me
TTITLE12=Whitey Kirst - Pull Your Clothes Off
TTITLE13=Jack Oblivian - I'm In Love With You
TTITLE14=The Ponys - Burn In Hell
TTITLE15=Iggy And The Stooges - You Better Run Version #2
EXTD=
EXTT0=
EXTT1=
EXTT2=
EXTT3=
EXTT4=
EXTT5=
EXTT6=
EXTT7=
EXTT8=
EXTT9=
EXTT10=
EXTT11=
EXTT12=
EXTT13=
EXTT14=
EXTT15=
PLAYORDER=
